<svg width="135" height="28" viewBox="0 0 135 28" fill="none" xmlns="http://www.w3.org/2000/svg">
<path d="M5.537 7.596V27H0.945V7.596H5.537ZM16.681 7.596L10.493 16.304L17.185 27H11.865L5.677 16.64L11.837 7.596H16.681ZM82.5807 11.656C83.8687 11.656 84.8767 12.048 85.6047 12.832C86.3327 13.616 86.6967 14.7173 86.6967 16.136V27H82.2727V16.892C82.2727 16.1453 82.1514 15.632 81.9087 15.352C81.6661 15.0533 81.3207 14.904 80.8727 14.904C79.9767 14.904 79.1181 15.5387 78.2967 16.808V27H73.8727V6.224L78.2967 5.776V13.728C78.9127 13.0373 79.5661 12.524 80.2567 12.188C80.9474 11.8333 81.7221 11.656 82.5807 11.656ZM101.353 7.596V27H96.7614V7.596H101.353ZM113.309 11.656C115.082 11.656 116.445 12.356 117.397 13.756C118.349 15.1373 118.825 17.0787 118.825 19.58C118.825 21.1107 118.582 22.4733 118.097 23.668C117.63 24.8627 116.949 25.796 116.053 26.468C115.175 27.14 114.13 27.476 112.917 27.476C112.114 27.476 111.377 27.308 110.705 26.972C110.051 26.636 109.491 26.1693 109.025 25.572L108.801 27H104.881V6.224L109.305 5.748V13.644C109.753 13.028 110.322 12.5427 111.013 12.188C111.722 11.8333 112.487 11.656 113.309 11.656ZM111.629 24.256C113.365 24.256 114.233 22.6973 114.233 19.58C114.233 17.8067 114.027 16.584 113.617 15.912C113.206 15.24 112.609 14.904 111.825 14.904C110.835 14.904 109.995 15.4827 109.305 16.64V22.828C109.585 23.276 109.921 23.6307 110.313 23.892C110.723 24.1347 111.162 24.256 111.629 24.256ZM134.132 27H130.296L130.1 25.124C129.017 26.692 127.514 27.476 125.592 27.476C124.229 27.476 123.193 27.0653 122.484 26.244C121.793 25.4227 121.448 24.2747 121.448 22.8V12.132H125.872V22.24C125.872 22.968 125.984 23.4813 126.208 23.78C126.45 24.06 126.814 24.2 127.3 24.2C128.233 24.2 129.036 23.6213 129.708 22.464V12.132H134.132V27Z" fill="#222831"/>
<path d="M33.1838 27L31.8158 21.338H24.1398L22.8098 27H16.3497L24.2918 0.665999H31.8538L39.7958 27H33.1838ZM25.2038 16.816H30.7518L27.9778 5.188L25.2038 16.816ZM50.2018 0.0199986C52.1778 0.0199986 53.8878 0.298665 55.3318 0.855999C56.8011 1.41333 58.1311 2.262 59.3218 3.402L56.4338 6.784C54.6351 5.31467 52.7098 4.58 50.6578 4.58C49.5685 4.58 48.7071 4.808 48.0738 5.264C47.4405 5.69467 47.1238 6.328 47.1238 7.164C47.1238 7.74667 47.2631 8.228 47.5418 8.608C47.8205 8.96267 48.3145 9.30467 49.0238 9.634C49.7331 9.96333 50.7971 10.356 52.2158 10.812C54.9011 11.6733 56.8771 12.7373 58.1438 14.004C59.4105 15.2453 60.0438 17.0187 60.0438 19.324C60.0438 20.9707 59.6258 22.4273 58.7898 23.694C57.9538 24.9353 56.7505 25.9107 55.1798 26.62C53.6091 27.304 51.7471 27.646 49.5938 27.646C47.4405 27.646 45.5278 27.304 43.8558 26.62C42.2091 25.936 40.7905 25.024 39.5998 23.884L42.7538 20.426C43.7671 21.2873 44.8058 21.9333 45.8698 22.364C46.9591 22.7947 48.1371 23.01 49.4038 23.01C50.6958 23.01 51.7091 22.7313 52.4438 22.174C53.2038 21.5913 53.5838 20.7933 53.5838 19.78C53.5838 19.1213 53.4445 18.5767 53.1658 18.146C52.8871 17.69 52.4058 17.2847 51.7218 16.93C51.0378 16.5753 50.0498 16.1953 48.7578 15.79C45.8445 14.9033 43.7671 13.814 42.5258 12.522C41.3098 11.23 40.7018 9.596 40.7018 7.62C40.7018 6.1 41.1071 4.77 41.9178 3.63C42.7285 2.46467 43.8558 1.578 45.2998 0.969998C46.7438 0.336665 48.3778 0.0199986 50.2018 0.0199986ZM69.7059 0.665999V27H63.4739V0.665999H69.7059Z" fill="#EC4C4C"/>
</svg>
