<svg width="186" height="23" viewBox="0 0 186 23" fill="none" xmlns="http://www.w3.org/2000/svg">
<path d="M15.467 2.596L15.019 6.124H10.231V22H5.639V6.124H0.627V2.596H15.467ZM28.6648 14.272C28.6648 14.888 28.6368 15.42 28.5808 15.868H19.3688C19.5182 17.1187 19.8728 17.996 20.4328 18.5C20.9928 19.004 21.7675 19.256 22.7568 19.256C23.3542 19.256 23.9328 19.1533 24.4928 18.948C25.0528 18.724 25.6595 18.388 26.3128 17.94L28.1328 20.404C26.3968 21.7853 24.4648 22.476 22.3368 22.476C19.9288 22.476 18.0808 21.7667 16.7928 20.348C15.5048 18.9293 14.8608 17.0253 14.8608 14.636C14.8608 13.124 15.1315 11.7707 15.6728 10.576C16.2142 9.36267 17.0075 8.41067 18.0528 7.72C19.0982 7.01067 20.3488 6.656 21.8048 6.656C23.9515 6.656 25.6315 7.328 26.8448 8.672C28.0582 10.016 28.6648 11.8827 28.6648 14.272ZM24.3248 13.012C24.2875 10.7347 23.4848 9.596 21.9168 9.596C21.1515 9.596 20.5542 9.876 20.1248 10.436C19.7142 10.996 19.4622 11.92 19.3688 13.208H24.3248V13.012ZM47.5861 6.656C48.7621 6.656 49.7047 7.05733 50.4141 7.86C51.1234 8.644 51.4781 9.736 51.4781 11.136V22H47.0541V11.892C47.0541 10.5667 46.6341 9.904 45.7941 9.904C45.3274 9.904 44.9167 10.0627 44.5621 10.38C44.2074 10.6973 43.8621 11.1827 43.5261 11.836V22H39.1021V11.892C39.1021 10.5667 38.6821 9.904 37.8421 9.904C37.3941 9.904 36.9834 10.072 36.6101 10.408C36.2554 10.7253 35.9101 11.2013 35.5741 11.836V22H31.1501V7.132H35.0141L35.3221 8.868C35.9007 8.12133 36.5354 7.57067 37.2261 7.216C37.9354 6.84267 38.7381 6.656 39.6341 6.656C40.4741 6.656 41.1927 6.86133 41.7901 7.272C42.4061 7.68267 42.8541 8.26133 43.1341 9.008C43.7314 8.20533 44.3847 7.61733 45.0941 7.244C45.8221 6.852 46.6527 6.656 47.5861 6.656ZM66.6184 17.688C66.6184 18.248 66.6931 18.6587 66.8424 18.92C67.0104 19.1813 67.2717 19.3773 67.6264 19.508L66.7024 22.392C65.7877 22.3173 65.0411 22.1213 64.4624 21.804C63.8837 21.468 63.4357 20.9453 63.1184 20.236C62.1477 21.7293 60.6544 22.476 58.6384 22.476C57.1637 22.476 55.9877 22.0467 55.1104 21.188C54.2331 20.3293 53.7944 19.2093 53.7944 17.828C53.7944 16.204 54.3917 14.9627 55.5864 14.104C56.7811 13.2453 58.5077 12.816 60.7664 12.816H62.2784V12.172C62.2784 11.2947 62.0917 10.6973 61.7184 10.38C61.3451 10.044 60.6917 9.876 59.7584 9.876C59.2731 9.876 58.6851 9.95067 57.9944 10.1C57.3037 10.2307 56.5944 10.4173 55.8664 10.66L54.8584 7.748C55.7917 7.39333 56.7437 7.12267 57.7144 6.936C58.7037 6.74933 59.6184 6.656 60.4584 6.656C62.5864 6.656 64.1451 7.09467 65.1344 7.972C66.1237 8.84933 66.6184 10.1653 66.6184 11.92V17.688ZM59.9264 19.312C60.9344 19.312 61.7184 18.836 62.2784 17.884V15.252H61.1864C60.1784 15.252 59.4224 15.4293 58.9184 15.784C58.4331 16.1387 58.1904 16.6893 58.1904 17.436C58.1904 18.0333 58.3397 18.5 58.6384 18.836C58.9557 19.1533 59.3851 19.312 59.9264 19.312ZM78.8503 6.656C80.1383 6.656 81.1463 7.048 81.8743 7.832C82.6023 8.616 82.9663 9.71733 82.9663 11.136V22H78.5423V11.892C78.5423 11.1453 78.4209 10.632 78.1783 10.352C77.9543 10.0533 77.6089 9.904 77.1423 9.904C76.2463 9.904 75.3876 10.548 74.5663 11.836V22H70.1423V7.132H74.0063L74.3143 8.896C74.9489 8.14933 75.6303 7.58933 76.3583 7.216C77.1049 6.84267 77.9356 6.656 78.8503 6.656ZM97.6229 2.596V18.36H105.183L104.707 22H93.0309V2.596H97.6229ZM118.845 17.688C118.845 18.248 118.92 18.6587 119.069 18.92C119.237 19.1813 119.498 19.3773 119.853 19.508L118.929 22.392C118.014 22.3173 117.268 22.1213 116.689 21.804C116.11 21.468 115.662 20.9453 115.345 20.236C114.374 21.7293 112.881 22.476 110.865 22.476C109.39 22.476 108.214 22.0467 107.337 21.188C106.46 20.3293 106.021 19.2093 106.021 17.828C106.021 16.204 106.618 14.9627 107.813 14.104C109.008 13.2453 110.734 12.816 112.993 12.816H114.505V12.172C114.505 11.2947 114.318 10.6973 113.945 10.38C113.572 10.044 112.918 9.876 111.985 9.876C111.5 9.876 110.912 9.95067 110.221 10.1C109.53 10.2307 108.821 10.4173 108.093 10.66L107.085 7.748C108.018 7.39333 108.97 7.12267 109.941 6.936C110.93 6.74933 111.845 6.656 112.685 6.656C114.813 6.656 116.372 7.09467 117.361 7.972C118.35 8.84933 118.845 10.1653 118.845 11.92V17.688ZM112.153 19.312C113.161 19.312 113.945 18.836 114.505 17.884V15.252H113.413C112.405 15.252 111.649 15.4293 111.145 15.784C110.66 16.1387 110.417 16.6893 110.417 17.436C110.417 18.0333 110.566 18.5 110.865 18.836C111.182 19.1533 111.612 19.312 112.153 19.312ZM126.793 0.747998V22H122.369V1.224L126.793 0.747998ZM135.977 7.132L131.469 13.656L136.341 22H131.357L126.933 13.88L131.469 7.132H135.977ZM147.142 21.3C146.601 21.6733 145.966 21.9627 145.238 22.168C144.529 22.3733 143.819 22.476 143.11 22.476C139.862 22.4573 138.238 20.6653 138.238 17.1V10.212H136.138V7.132H138.238V3.912L142.662 3.408V7.132H146.078L145.602 10.212H142.662V17.044C142.662 17.7347 142.774 18.2293 142.998 18.528C143.222 18.8267 143.577 18.976 144.062 18.976C144.566 18.976 145.098 18.8173 145.658 18.5L147.142 21.3Z" fill="#222831"/>
<path d="M158.923 22L157.915 17.828H152.259L151.279 22H146.519L152.371 2.596H157.943L163.795 22H158.923ZM153.043 14.496H157.131L155.087 5.928L153.043 14.496ZM171.462 2.12C172.918 2.12 174.178 2.32533 175.242 2.736C176.325 3.14667 177.305 3.772 178.182 4.612L176.054 7.104C174.729 6.02133 173.31 5.48 171.798 5.48C170.996 5.48 170.361 5.648 169.894 5.984C169.428 6.30133 169.194 6.768 169.194 7.384C169.194 7.81333 169.297 8.168 169.502 8.448C169.708 8.70933 170.072 8.96133 170.594 9.204C171.117 9.44667 171.901 9.736 172.946 10.072C174.925 10.7067 176.381 11.4907 177.314 12.424C178.248 13.3387 178.714 14.6453 178.714 16.344C178.714 17.5573 178.406 18.6307 177.79 19.564C177.174 20.4787 176.288 21.1973 175.13 21.72C173.973 22.224 172.601 22.476 171.014 22.476C169.428 22.476 168.018 22.224 166.786 21.72C165.573 21.216 164.528 20.544 163.65 19.704L165.974 17.156C166.721 17.7907 167.486 18.2667 168.27 18.584C169.073 18.9013 169.941 19.06 170.874 19.06C171.826 19.06 172.573 18.8547 173.114 18.444C173.674 18.0147 173.954 17.4267 173.954 16.68C173.954 16.1947 173.852 15.7933 173.646 15.476C173.441 15.14 173.086 14.8413 172.582 14.58C172.078 14.3187 171.35 14.0387 170.398 13.74C168.252 13.0867 166.721 12.284 165.806 11.332C164.91 10.38 164.462 9.176 164.462 7.72C164.462 6.6 164.761 5.62 165.358 4.78C165.956 3.92133 166.786 3.268 167.85 2.82C168.914 2.35333 170.118 2.12 171.462 2.12ZM185.834 2.596V22H181.242V2.596H185.834Z" fill="#EC4C4C"/>
</svg>
