<svg width="111" height="23" viewBox="0 0 111 23" fill="none" xmlns="http://www.w3.org/2000/svg">
<g clip-path="url(#clip0_13_390)">
<path d="M4.5525 6.23968V22.1787H0.776855V6.23968H4.5525ZM13.7153 6.23968L8.62743 13.3927L14.1297 22.1787H9.75552L4.66761 13.6687L9.7325 6.23968H13.7153ZM67.8995 9.57468C68.9586 9.57468 69.7874 9.89668 70.3859 10.5407C70.9845 11.1847 71.2838 12.0893 71.2838 13.2547V22.1787H67.6463V13.8757C67.6463 13.2623 67.5466 12.8407 67.347 12.6107C67.1475 12.3653 66.8635 12.2427 66.4952 12.2427C65.7585 12.2427 65.0525 12.764 64.3771 13.8067V22.1787H60.7396V5.11268L64.3771 4.74468V11.2767C64.8836 10.7093 65.4209 10.2877 65.9887 10.0117C66.5566 9.72032 67.1936 9.57468 67.8995 9.57468ZM83.3345 6.23968V22.1787H79.5592V6.23968H83.3345ZM93.165 9.57468C94.6228 9.57468 95.7435 10.1497 96.5263 11.2997C97.309 12.4343 97.7004 14.029 97.7004 16.0837C97.7004 17.341 97.5006 18.4603 97.1018 19.4417C96.7179 20.423 96.1579 21.1897 95.4212 21.7417C94.6993 22.2937 93.8401 22.5697 92.8427 22.5697C92.1825 22.5697 91.5765 22.4317 91.024 22.1557C90.4862 21.8797 90.0258 21.4963 89.6426 21.0057L89.4585 22.1787H86.2353V5.11268L89.8729 4.72168V11.2077C90.2412 10.7017 90.7091 10.303 91.2772 10.0117C91.8602 9.72032 92.4892 9.57468 93.165 9.57468ZM91.7837 19.9247C93.2111 19.9247 93.9248 18.6443 93.9248 16.0837C93.9248 14.627 93.7554 13.6227 93.4183 13.0707C93.0803 12.5187 92.5895 12.2427 91.9449 12.2427C91.1309 12.2427 90.4402 12.718 89.8729 13.6687V18.7517C90.1031 19.1197 90.3793 19.411 90.7017 19.6257C91.0388 19.825 91.3997 19.9247 91.7837 19.9247ZM110.286 22.1787H107.132L106.971 20.6377C106.081 21.9257 104.845 22.5697 103.264 22.5697C102.144 22.5697 101.292 22.2323 100.709 21.5577C100.141 20.883 99.8571 19.94 99.8571 18.7287V9.96568H103.495V18.2687C103.495 18.8667 103.587 19.2883 103.771 19.5337C103.97 19.7637 104.269 19.8787 104.669 19.8787C105.436 19.8787 106.096 19.4033 106.649 18.4527V9.96568H110.286V22.1787Z" fill="#222831"/>
<path d="M27.2842 22.1787L26.1594 17.5278H19.8481L18.7545 22.1787H13.4429L19.973 0.547245H26.1907L32.7208 22.1787H27.2842ZM20.7229 13.8133H25.2846L23.0038 4.26175L20.7229 13.8133ZM41.2768 0.0166016C42.9015 0.0166016 44.3075 0.245506 45.4948 0.703316C46.7029 1.16112 47.7965 1.85825 48.7755 2.79467L46.4009 5.57275C44.922 4.3658 43.339 3.76232 41.6518 3.76232C40.7561 3.76232 40.0478 3.9496 39.5271 4.32417C39.0064 4.67794 38.746 5.19817 38.746 5.88489C38.746 6.36351 38.8606 6.75889 39.0897 7.07103C39.3189 7.36237 39.725 7.6433 40.3082 7.91382C40.8914 8.18434 41.7663 8.50689 42.9328 8.88146C45.1407 9.58896 46.7654 10.463 47.8069 11.5035C48.8484 12.5231 49.3691 13.9798 49.3691 15.8735C49.3691 17.2261 49.0254 18.4226 48.3381 19.4631C47.6507 20.4827 46.6613 21.284 45.3698 21.8666C44.0784 22.4285 42.5474 22.7094 40.7769 22.7094C39.0064 22.7094 37.4338 22.4285 36.059 21.8666C34.705 21.3047 33.5386 20.5556 32.5596 19.6192L35.1529 16.7787C35.9861 17.4862 36.8401 18.0168 37.715 18.3706C38.6106 18.7244 39.5792 18.9012 40.6207 18.9012C41.683 18.9012 42.5162 18.6723 43.1202 18.2145C43.7451 17.7359 44.0576 17.0804 44.0576 16.248C44.0576 15.707 43.943 15.2596 43.7139 14.9058C43.4847 14.5312 43.089 14.1983 42.5266 13.907C41.9642 13.6156 41.1518 13.3035 40.0895 12.9705C37.6942 12.2422 35.9861 11.3474 34.9654 10.2861C33.9656 9.22482 33.4657 7.8826 33.4657 6.25946C33.4657 5.01089 33.799 3.91839 34.4655 2.98196C35.1321 2.02472 36.059 1.29639 37.2463 0.796958C38.4336 0.27672 39.7771 0.0166016 41.2768 0.0166016ZM57.3135 0.547245V22.1787H52.1894V0.547245H57.3135Z" fill="#13A87C"/>
</g>
<defs>
<clipPath id="clip0_13_390">
<rect width="111" height="23" fill="white"/>
</clipPath>
</defs>
</svg>
