<svg width="116" height="14" viewBox="0 0 116 14" fill="none" xmlns="http://www.w3.org/2000/svg">
<path d="M9.29468 1.15745L9.01408 3.36713H6.01523V13.3107H3.13915V3.36713H0V1.15745H9.29468ZM17.5608 8.47043C17.5608 8.85625 17.5433 9.18945 17.5082 9.47005H11.7385C11.832 10.2534 12.0541 10.8029 12.4049 11.1185C12.7556 11.4342 13.2408 11.592 13.8605 11.592C14.2346 11.592 14.597 11.5277 14.9478 11.3991C15.2985 11.2588 15.6785 11.0484 16.0877 10.7678L17.2276 12.3111C16.1403 13.1762 14.9302 13.6088 13.5974 13.6088C12.0892 13.6088 10.9318 13.1646 10.1251 12.276C9.31835 11.3874 8.915 10.1949 8.915 8.69842C8.915 7.75141 9.08454 6.9038 9.42357 6.15553C9.76267 5.39559 10.2595 4.79933 10.9142 4.36675C11.569 3.92247 12.3523 3.70033 13.2642 3.70033C14.6087 3.70033 15.661 4.12123 16.4209 4.96301C17.1809 5.80479 17.5608 6.97395 17.5608 8.47043ZM14.8425 7.68126C14.8192 6.25493 14.3164 5.54173 13.3344 5.54173C12.855 5.54173 12.4809 5.7171 12.212 6.06785C11.9548 6.41859 11.797 6.99731 11.7385 7.80402H14.8425V7.68126ZM29.4117 3.70033C30.1483 3.70033 30.7386 3.9517 31.183 4.45443C31.6272 4.94547 31.8494 5.62942 31.8494 6.50627V13.3107H29.0785V6.97978C29.0785 6.14971 28.8154 5.73464 28.2893 5.73464C27.997 5.73464 27.7398 5.83404 27.5177 6.03277C27.2955 6.23151 27.0793 6.53552 26.8688 6.9447V13.3107H24.098V6.97978C24.098 6.14971 23.8349 5.73464 23.3088 5.73464C23.0282 5.73464 22.771 5.83986 22.5371 6.05031C22.315 6.24904 22.0987 6.54717 21.8883 6.9447V13.3107H19.1174V3.99847H21.5375L21.7304 5.08577C22.0928 4.61811 22.4904 4.27322 22.923 4.05108C23.3672 3.81725 23.87 3.70033 24.4312 3.70033C24.9573 3.70033 25.4073 3.82894 25.7815 4.08615C26.1673 4.34336 26.4479 4.70579 26.6233 5.17345C26.9974 4.67072 27.4066 4.30244 27.8509 4.06861C28.3069 3.82309 28.8271 3.70033 29.4117 3.70033ZM41.3321 10.61C41.3321 10.9607 41.3789 11.2179 41.4724 11.3816C41.5776 11.5453 41.7413 11.668 41.9635 11.7499L41.3847 13.5562C40.8118 13.5094 40.3442 13.3867 39.9818 13.1879C39.6193 12.9775 39.3387 12.6501 39.14 12.2058C38.532 13.1411 37.5967 13.6088 36.334 13.6088C35.4104 13.6088 34.6738 13.3399 34.1244 12.8021C33.5749 12.2643 33.3001 11.5628 33.3001 10.6976C33.3001 9.68049 33.6742 8.90304 34.4225 8.36521C35.1708 7.82738 36.2522 7.5585 37.6669 7.5585H38.6139V7.15515C38.6139 6.60567 38.4969 6.23151 38.2631 6.03277C38.0293 5.82233 37.6201 5.7171 37.0355 5.7171C36.7316 5.7171 36.3633 5.76387 35.9307 5.8574C35.4981 5.93926 35.0538 6.05613 34.5979 6.20814L33.9665 4.38428C34.5511 4.16214 35.1473 3.99262 35.7553 3.87571C36.3749 3.75879 36.9478 3.70033 37.474 3.70033C38.8068 3.70033 39.783 3.97509 40.4027 4.52458C41.0223 5.07407 41.3321 5.8983 41.3321 6.99731V10.61ZM37.1408 11.6271C37.7721 11.6271 38.2631 11.329 38.6139 10.7327V9.08423H37.9299C37.2986 9.08423 36.8251 9.19528 36.5094 9.41744C36.2055 9.6396 36.0534 9.98445 36.0534 10.4521C36.0534 10.8262 36.147 11.1185 36.334 11.329C36.5328 11.5277 36.8017 11.6271 37.1408 11.6271ZM48.9933 3.70033C49.8 3.70033 50.4313 3.94585 50.8873 4.43689C51.3433 4.92793 51.5712 5.61772 51.5712 6.50627V13.3107H48.8004V6.97978C48.8004 6.5121 48.7243 6.19061 48.5724 6.01524C48.4321 5.82815 48.2158 5.73464 47.9235 5.73464C47.3623 5.73464 46.8245 6.138 46.3101 6.9447V13.3107H43.5392V3.99847H45.9594L46.1523 5.1033C46.5497 4.63565 46.9765 4.2849 47.4325 4.05108C47.9001 3.81725 48.4204 3.70033 48.9933 3.70033ZM60.751 1.15745V11.0309H65.4861L65.188 13.3107H57.875V1.15745H60.751ZM74.043 10.61C74.043 10.9607 74.09 11.2179 74.1833 11.3816C74.2885 11.5453 74.452 11.668 74.6743 11.7499L74.0956 13.5562C73.5225 13.5094 73.0553 13.3867 72.6926 13.1879C72.33 12.9775 72.0494 12.6501 71.8509 12.2058C71.2427 13.1411 70.3076 13.6088 69.0449 13.6088C68.1211 13.6088 67.3845 13.3399 66.8352 12.8021C66.2859 12.2643 66.011 11.5628 66.011 10.6976C66.011 9.68049 66.3849 8.90304 67.1334 8.36521C67.8818 7.82738 68.9629 7.5585 70.3777 7.5585H71.3247V7.15515C71.3247 6.60567 71.2076 6.23151 70.974 6.03277C70.7404 5.82233 70.3308 5.7171 69.7464 5.7171C69.4426 5.7171 69.0744 5.76387 68.6416 5.8574C68.2088 5.93926 67.7647 6.05613 67.3087 6.20814L66.6774 4.38428C67.2618 4.16214 67.858 3.99262 68.4662 3.87571C69.0856 3.75879 69.6587 3.70033 70.1848 3.70033C71.5176 3.70033 72.4941 3.97509 73.1135 4.52458C73.733 5.07407 74.043 5.8983 74.043 6.99731V10.61ZM69.8516 11.6271C70.483 11.6271 70.974 11.329 71.3247 10.7327V9.08423H70.6408C70.0095 9.08423 69.536 9.19528 69.2203 9.41744C68.9165 9.6396 68.7643 9.98445 68.7643 10.4521C68.7643 10.8262 68.8576 11.1185 69.0449 11.329C69.2435 11.5277 69.5128 11.6271 69.8516 11.6271ZM79.021 0V13.3107H76.2502V0.298132L79.021 0ZM84.7732 3.99847L81.9497 8.08462L85.0012 13.3107H81.8796L79.1087 8.22491L81.9497 3.99847H84.7732ZM91.7661 12.8723C91.4273 13.1061 91.0296 13.2873 90.5736 13.4159C90.1296 13.5445 89.6849 13.6088 89.2408 13.6088C87.2065 13.5971 86.1893 12.4747 86.1893 10.2417V5.92755H84.8741V3.99847H86.1893V1.9817L88.9602 1.66603V3.99847H91.0997L90.8016 5.92755H88.9602V10.2066C88.9602 10.6392 89.0303 10.949 89.1706 11.1361C89.3109 11.3232 89.5333 11.4167 89.8371 11.4167C90.1527 11.4167 90.4859 11.3173 90.8367 11.1185L91.7661 12.8723Z" fill="#222831"/>
<path d="M99.1449 13.3107L98.5136 10.6977H94.9711L94.3573 13.3107H91.376L95.0412 1.15751H98.5311L102.196 13.3107H99.1449ZM95.4621 8.61078H98.0225L96.7423 3.24442L95.4621 8.61078ZM106.998 0.859375C107.91 0.859375 108.7 0.987979 109.366 1.24519C110.044 1.50241 110.658 1.89407 111.207 2.42018L109.875 3.98098C109.045 3.30288 108.156 2.96383 107.209 2.96383C106.707 2.96383 106.309 3.06905 106.016 3.2795C105.724 3.47825 105.578 3.77054 105.578 4.15635C105.578 4.42526 105.642 4.64739 105.771 4.82277C105.9 4.98644 106.128 5.14428 106.455 5.29627C106.782 5.44826 107.273 5.62947 107.928 5.83992C109.167 6.23745 110.079 6.72849 110.664 7.31304C111.249 7.88594 111.541 8.70429 111.541 9.76823C111.541 10.5282 111.348 11.2005 110.962 11.785C110.576 12.3579 110.021 12.808 109.296 13.1354C108.571 13.451 107.712 13.6089 106.718 13.6089C105.724 13.6089 104.841 13.451 104.07 13.1354C103.31 12.8197 102.655 12.3988 102.106 11.8727L103.561 10.2768C104.029 10.6743 104.508 10.9725 104.999 11.1712C105.502 11.3699 106.046 11.4693 106.63 11.4693C107.226 11.4693 107.694 11.3408 108.033 11.0835C108.384 10.8146 108.559 10.4464 108.559 9.97868C108.559 9.67472 108.495 9.42332 108.366 9.22458C108.238 9.01414 108.016 8.82705 107.7 8.6634C107.384 8.49974 106.928 8.32437 106.332 8.13728C104.988 7.7281 104.029 7.22535 103.456 6.62909C102.895 6.03283 102.614 5.27873 102.614 4.3668C102.614 3.66531 102.801 3.05152 103.175 2.5254C103.55 1.98759 104.07 1.5784 104.736 1.2978C105.403 1.00552 106.157 0.859375 106.998 0.859375ZM116 1.15751V13.3107H113.124V1.15751H116Z" fill="#EC4C4C"/>
</svg>
