<svg width="27" height="28" viewBox="0 0 27 28" fill="none" xmlns="http://www.w3.org/2000/svg">
<path d="M21.2638 27.2073H5.15076C3.69794 27.2073 2.50928 26.0186 2.50928 24.5658V3.43396C2.50928 1.98115 3.69794 0.79248 5.15076 0.79248H21.2638C22.7166 0.79248 23.9053 1.98115 23.9053 3.43396V24.5658C23.9053 26.0186 22.7166 27.2073 21.2638 27.2073Z" fill="white"/>
<path d="M11.8867 4.54346H14.5282V13.1283H11.8867V4.54346Z" fill="#ED97A0"/>
<path d="M8.90186 7.52832H17.4867V10.1698H8.90186V7.52832Z" fill="#ED97A0"/>
<path d="M23.9057 25.3582C23.4567 25.3582 23.1133 25.0148 23.1133 24.5658V3.43392C23.1133 2.40375 22.2944 1.58489 21.2642 1.58489H5.15121C4.12103 1.58489 3.30217 2.40375 3.30217 3.43392V8.71688C3.30217 9.16594 2.95878 9.50933 2.50973 9.50933C2.06068 9.50933 1.71729 9.16594 1.71729 8.71688V3.43392C1.71729 1.53206 3.24934 0 5.15121 0H21.2642C23.1661 0 24.6982 1.53206 24.6982 3.43392V24.5658C24.6982 25.0148 24.3548 25.3582 23.9057 25.3582Z" fill="#454B54"/>
<path d="M22.9809 27.2073H3.43396C1.98115 27.2073 0.79248 26.0186 0.79248 24.5658V11.3584L13.2074 19.2828L25.6224 11.3584V24.5658C25.6224 26.0186 24.4337 27.2073 22.9809 27.2073Z" fill="#FCF7CB"/>
<path d="M22.9809 27.9997H3.43392C1.53206 27.9997 0 26.4676 0 24.5658V11.3584C0 11.0678 0.158489 10.8037 0.422637 10.6716C0.686785 10.5395 0.977348 10.5395 1.2415 10.698L13.6565 18.6224C14.0263 18.8602 14.1319 19.3356 13.8942 19.7054C13.6565 20.0752 13.181 20.1809 12.8112 19.9432L1.58489 12.8112V24.5658C1.58489 25.5959 2.40375 26.4148 3.43392 26.4148H22.9809C24.0111 26.4148 24.8299 25.5959 24.8299 24.5658V11.3584C24.8299 10.9093 25.1733 10.5659 25.6224 10.5659C26.0714 10.5659 26.4148 10.9093 26.4148 11.3584V24.5658C26.4148 26.4676 24.8827 27.9997 22.9809 27.9997Z" fill="#454B54"/>
<path d="M6.55098 24.4863C6.28683 24.4863 6.0491 24.3542 5.89061 24.1165C5.65288 23.7467 5.75854 23.2712 6.12834 23.0335L25.1998 10.6977C25.5696 10.46 26.0451 10.5657 26.2828 10.9355C26.5206 11.3053 26.4149 11.7807 26.0451 12.0185L6.97362 24.3542C6.86796 24.4334 6.70947 24.4863 6.55098 24.4863Z" fill="#454B54"/>
</svg>
