<svg width="27" height="34" viewBox="0 0 27 34" fill="none" xmlns="http://www.w3.org/2000/svg">
<path d="M11.9 0H2.55C2.55 0 2.55 1.7 1.7 4.25C1.09905 6.05285 0 9.35 0 11.9C0 17 3.4 26.35 3.4 34H19.55C19.55 34 20.4 28.9 20.4 27.2C20.4 25.5 20.4 23.8 20.4 23.8C20.4 23.8 22.5981 23.2543 23.8 22.0516C25.0716 20.78 25.8681 18.5836 26.1885 17.5576C26.2922 17.2244 26.1808 16.8683 25.9097 16.6481C24.593 15.5839 20.1765 11.1656 17.85 8.30195C15.918 5.92365 15.3 5.1 14.45 4.25C12.8138 2.61375 11.9 0 11.9 0Z" fill="#FFB74D"/>
<path d="M20.3998 23.8002C17.8498 23.8002 15.2998 22.9502 15.2998 22.9502C15.2998 22.9502 17.8498 25.5002 20.3998 25.5002V23.8002Z" fill="#FB8C00"/>
<path d="M24.3697 15.249C24.0722 15.8959 24.0127 16.5512 24.0127 17.1913C24.0127 18.2674 24.5337 19.3503 25.212 19.9852C25.7127 19.0179 26.0034 18.1492 26.1887 17.5576C26.2924 17.2244 26.181 16.8683 25.9099 16.6481C25.5265 16.3396 25.0828 15.8721 24.3697 15.249Z" fill="#E57373"/>
<path d="M25.8867 18.4328C26.0006 18.1217 26.1179 17.7809 26.1876 17.5582C26.2913 17.225 26.1799 16.8688 25.9088 16.6487C25.8144 16.5722 25.6104 16.3784 25.4906 16.2798C25.3971 16.5365 25.3452 16.8739 25.3452 17.0873C25.3452 17.5956 25.5577 18.069 25.8867 18.4328Z" fill="#D32F2F"/>
</svg>
