<svg width="39" height="39" viewBox="0 0 39 39" fill="none" xmlns="http://www.w3.org/2000/svg">
<path d="M2.4375 8.125H36.5625V31.6875H2.4375V8.125Z" fill="#D32F2F"/>
<path d="M19.5 25.1875C18.4226 25.1875 17.3892 25.6155 16.6274 26.3774C15.8655 27.1392 15.4375 28.1726 15.4375 29.25C15.4375 30.3274 15.8655 31.3608 16.6274 32.1226C17.3892 32.8845 18.4226 33.3125 19.5 33.3125C20.5774 33.3125 21.6108 32.8845 22.3726 32.1226C23.1345 31.3608 23.5625 30.3274 23.5625 29.25C23.5625 28.1726 23.1345 27.1392 22.3726 26.3774C21.6108 25.6155 20.5774 25.1875 19.5 25.1875Z" fill="#D32F2F"/>
<path d="M19.5 26.8125C18.8535 26.8125 18.2335 27.0693 17.7764 27.5264C17.3193 27.9835 17.0625 28.6035 17.0625 29.25C17.0625 29.8965 17.3193 30.5165 17.7764 30.9736C18.2335 31.4307 18.8535 31.6875 19.5 31.6875C20.1465 31.6875 20.7665 31.4307 21.2236 30.9736C21.6807 30.5165 21.9375 29.8965 21.9375 29.25C21.9375 28.6035 21.6807 27.9835 21.2236 27.5264C20.7665 27.0693 20.1465 26.8125 19.5 26.8125Z" fill="#4C0808"/>
<path d="M32.5 5.6875L20.3125 8.125H18.6875L6.5 5.6875L4.875 9.75V29.25H34.125V9.75L32.5 5.6875Z" fill="#D7CCC8"/>
<path d="M6.5 26.8133H18.6875V29.25H20.3125V26.8133L32.5 26.8125L34.125 29.25H4.875L6.5 26.8133Z" fill="#BCAAA4"/>
<path d="M32.5 5.6875C32.5 5.6875 20.3125 5.6875 20.3125 8.125C20.3125 10.5625 20.3125 29.25 20.3125 29.25C20.3125 26.8125 32.5 26.8125 32.5 26.8125V5.6875ZM6.5 5.6875C6.5 5.6875 18.6875 5.6875 18.6875 8.125C18.6875 10.5625 18.6875 29.25 18.6875 29.25C18.6875 26.8125 6.5 26.8125 6.5 26.8125V5.6875Z" fill="#EFEBE9"/>
<path d="M18.6875 8.125H20.3125V29.25H18.6875V8.125Z" fill="#BCAAA4"/>
</svg>
